<?xml version="1.0" encoding="UTF-8" standalone="no"?>
<svg width="50px" height="55px" viewBox="0 0 50 55" version="1.1" xmlns="http://www.w3.org/2000/svg" xmlns:xlink="http://www.w3.org/1999/xlink" xmlns:sketch="http://www.bohemiancoding.com/sketch/ns">
    <!-- Generator: Sketch 3.4.4 (17249) - http://www.bohemiancoding.com/sketch -->
    <title>Logo</title>
    <desc>Created with Sketch.</desc>
    <defs>
        <path id="path-1" d="M0,0 L50,0 L50,54.4871795 L0,54.4871795"></path>
    </defs>
    <g id="Homepage" stroke="none" stroke-width="1" fill="none" fill-rule="evenodd" sketch:type="MSPage">
        <g id="Homepage-Mobile" sketch:type="MSArtboardGroup" transform="translate(-20.000000, -20.000000)">
            <g id="Header" sketch:type="MSLayerGroup" transform="translate(20.000000, 20.000000)">
                <g id="Logo">
                    <mask id="mask-2" sketch:name="Clip 2" fill="white">
                        <use xlink:href="#path-1"></use>
                    </mask>
                    <g id="Clip-2"></g>
                    <path d="M43.1996304,16.5019186 L49.3004333,13.2480647 C50.0062661,12.8716572 50.2191885,11.9921808 49.7486332,11.365282 C48.468129,9.65937804 46.9837697,8.10248735 45.32901,6.72634977 C44.7188515,6.21910859 43.7789917,6.33757414 43.318598,6.9725197 L39.3432664,12.4557611 C38.9594747,12.9850563 39.0431116,13.6994259 39.5336771,14.1412503 C40.2268471,14.7656159 40.8696787,15.440348 41.4552932,16.1594861 C41.8698821,16.6685154 42.6094823,16.8166346 43.1996304,16.5019186" id="Fill-1" fill="#90C45B" sketch:type="MSShapeGroup" mask="url(#mask-2)"></path>
                    <path d="M27.6462164,45.0708459 C17.8788483,45.1723971 9.74560289,37.3980225 9.44116861,27.6523066 C9.21314794,20.3552377 13.3641917,13.9838528 19.4632488,10.958937 C20.0830989,10.651543 20.3936341,9.94601347 20.1858989,9.28692044 L18.165285,2.87534134 C17.9203344,2.09855856 17.051568,1.71031942 16.3064971,2.04222582 C6.61584768,6.35837931 -0.129140834,16.1150573 0.00187572123,27.4033768 C0.172700567,42.1232735 12.0961223,54.1559463 26.8396791,54.4803924 C36.2608219,54.6877578 44.642831,50.1269375 49.7427152,43.0564177 C50.2162966,42.3997606 50.0157299,41.478492 49.308332,41.0834016 L43.4104517,37.7893067 C42.8156152,37.4570957 42.0720696,37.6152842 41.6520235,38.1509019 C38.3866761,42.314348 33.3278203,45.0119249 27.6462164,45.0708459" id="Fill-3" fill="#F2F2F1" sketch:type="MSShapeGroup" mask="url(#mask-2)"></path>
                    <path d="M37.0972464,10.319782 L40.7891464,4.90903105 C41.2362618,4.2538142 41.0293919,3.34470082 40.337326,2.96675982 C38.5623911,1.99748562 36.6663041,1.22760582 34.6786181,0.686754088 C33.9170075,0.479616215 33.1483395,0.998726658 33.0311573,1.78841188 L32.0660585,8.29709783 C31.9684312,8.95573968 32.3633513,9.58266308 32.9908714,9.78131292 C33.8273198,10.0463779 34.6367148,10.3736885 35.4137635,10.7581817 C36.0070258,11.051689 36.7218811,10.8698664 37.0972464,10.319782" id="Fill-4" fill="#E4694C" sketch:type="MSShapeGroup" mask="url(#mask-2)"></path>
                    <path d="M29.0863751,8.22335236 L30.1123465,1.59179803 C30.2366067,0.788851951 29.6156199,0.051034223 28.7761173,0.0199122818 C26.6231639,-0.0596384362 24.4468038,0.0984002994 22.2888235,0.507843594 C21.4622025,0.664667815 20.9661042,1.48947516 21.2209083,2.26555011 L23.3206073,8.66118493 C23.5329964,9.3083695 24.2031532,9.70247954 24.8975023,9.59894216 C25.8229345,9.4607911 26.7513515,9.39217102 27.6753698,9.39050106 C28.3808724,9.38928654 28.9820656,8.89771169 29.0863751,8.22335236" id="Fill-5" fill="#47A6BF" sketch:type="MSShapeGroup" mask="url(#mask-2)"></path>
                </g>
            </g>
        </g>
    </g>
</svg>