<?xml version="1.0" encoding="UTF-8" standalone="no"?>
<svg width="30px" height="30px" viewBox="0 0 30 30" version="1.1" xmlns="http://www.w3.org/2000/svg" xmlns:xlink="http://www.w3.org/1999/xlink" xmlns:sketch="http://www.bohemiancoding.com/sketch/ns">
    <!-- Generator: Sketch 3.4.4 (17249) - http://www.bohemiancoding.com/sketch -->
    <title>Google Plus</title>
    <desc>Created with Sketch.</desc>
    <defs></defs>
    <g id="Homepage" stroke="none" stroke-width="1" fill="none" fill-rule="evenodd" sketch:type="MSPage">
        <g id="Homepage-Mobile" sketch:type="MSArtboardGroup" transform="translate(-188.000000, -2255.000000)" fill="#4D4F56" opacity="0.5">
            <g id="Footer" sketch:type="MSLayerGroup" transform="translate(0.000000, 2220.000000)">
                <g id="Social-Icons" transform="translate(102.000000, 35.000000)" sketch:type="MSShapeGroup">
                    <path d="M101,30 C109.284271,30 116,23.2842712 116,15 C116,6.71572875 109.284271,0 101,0 C92.7157288,0 86,6.71572875 86,15 C86,23.2842712 92.7157288,30 101,30 Z M109.952874,14.5438956 L107.44172,14.5438956 L107.44172,11.910519 C107.44172,11.7095969 107.286277,11.5461943 107.095066,11.5461943 L106.380029,11.5461943 C106.18748,11.5461943 106.032037,11.7095969 106.032037,11.910519 L106.032037,14.5438956 L103.520883,14.5438956 C103.329671,14.5438956 103.17356,14.7076489 103.17356,14.9089216 L103.17356,15.6589606 C103.17356,15.8602333 103.329671,16.0232853 103.520883,16.0232853 L106.032037,16.0232853 L106.032037,18.6580645 C106.032037,18.8593372 106.18748,19.0223891 106.380029,19.0223891 L107.095066,19.0223891 C107.286277,19.0223891 107.44172,18.8593372 107.44172,18.6580645 L107.44172,16.0229346 L109.952874,16.0229346 C110.144086,16.0229346 110.300197,15.8598827 110.300197,15.6586099 L110.300197,14.908571 C110.300197,14.7072982 110.144086,14.5438956 109.952874,14.5438956 Z M101.514166,16.8532723 C100.985994,16.4608956 100.50596,15.8854801 100.497603,15.7087528 C100.497603,15.3868567 100.525014,15.2329216 101.213309,14.6704801 C102.103177,13.9397268 102.59324,12.9789476 102.59324,11.9638177 C102.59324,11.0433632 102.325143,10.2256489 101.868843,9.65128525 L102.222851,9.65128525 C102.29606,9.65128525 102.367931,9.6274411 102.426431,9.58255798 L103.414246,8.83181772 C103.536929,8.73959694 103.588409,8.57514239 103.541609,8.42471382 C103.494474,8.2746359 103.362097,8.17224629 103.211334,8.17224629 L98.7934143,8.17224629 C98.3100371,8.17224629 97.8189714,8.26166188 97.3369314,8.43558395 C95.7270114,9.01801252 94.6011371,10.4570775 94.6011371,11.9343632 C94.6011371,14.0273891 96.1468743,15.6137268 98.2130943,15.663519 C98.1726457,15.8293762 98.1522543,15.9927788 98.1522543,16.1530255 C98.1522543,16.4756229 98.2301429,16.7810385 98.3906,17.0762853 L98.3337714,17.0762853 C96.36416,17.0762853 94.5864286,18.0900125 93.9115057,19.598506 C93.7356714,19.9908827 93.6460829,20.3874671 93.6460829,20.7791424 C93.6460829,21.1599476 93.7393486,21.5263762 93.9222029,21.8707138 C94.3464114,22.6666878 95.25734,23.2841814 96.4885143,23.6102853 C97.1239914,23.7785969 97.8069371,23.864506 98.5159571,23.864506 C99.1531057,23.864506 99.7605029,23.7782463 100.322103,23.6078307 C102.073091,23.074493 103.205317,21.7223891 103.205317,20.1616489 C103.204983,18.6640255 102.746009,17.7674151 101.514166,16.8532723 Z M95.9346029,20.281571 C95.9346029,19.1921034 97.2540286,18.236584 98.75798,18.236584 L98.7984286,18.236584 C99.1256943,18.2407917 99.4449371,18.2912853 99.7457943,18.3880645 C99.8490886,18.4627528 99.9487057,18.5339346 100.044311,18.6023112 C100.740963,19.1002333 101.201274,19.4287917 101.329306,19.9561684 C101.359391,20.0890645 101.374434,20.2219606 101.374434,20.3506489 C101.374434,21.7073112 100.41002,22.3949346 98.5069314,22.3949346 C97.0644886,22.3949346 95.9346029,21.4671164 95.9346029,20.281571 L95.9346029,20.281571 Z M97.3031686,9.98755798 C97.5381714,9.70598655 97.8460486,9.55731123 98.1917,9.55731123 L98.2308114,9.55801252 C99.20726,9.58816837 100.141589,10.729532 100.313411,12.1023242 C100.41002,12.8709476 100.246889,13.5936359 99.8785057,14.0340515 C99.6428343,14.3163242 99.3393029,14.4649995 98.9796114,14.4649995 C98.9796114,14.4649995 98.9796114,14.4649995 98.9789429,14.4649995 L98.9632314,14.4649995 C98.00684,14.4341424 97.0524543,13.2492982 96.8816343,11.8782593 C96.7856943,11.1117398 96.9394657,10.4227138 97.3031686,9.98755798 L97.3031686,9.98755798 Z" id="Google-Plus"></path>
                </g>
            </g>
        </g>
    </g>
</svg>