<?xml version="1.0" encoding="UTF-8" standalone="no"?>
<svg width="30px" height="30px" viewBox="0 0 30 30" version="1.1" xmlns="http://www.w3.org/2000/svg" xmlns:xlink="http://www.w3.org/1999/xlink" xmlns:sketch="http://www.bohemiancoding.com/sketch/ns">
    <!-- Generator: Sketch 3.4.4 (17249) - http://www.bohemiancoding.com/sketch -->
    <title>Twitter</title>
    <desc>Created with Sketch.</desc>
    <defs></defs>
    <g id="Homepage" stroke="none" stroke-width="1" fill="none" fill-rule="evenodd" sketch:type="MSPage">
        <g id="Homepage-Mobile" sketch:type="MSArtboardGroup" transform="translate(-145.000000, -2255.000000)" fill="#4D4F56" opacity="0.5">
            <g id="Footer" sketch:type="MSLayerGroup" transform="translate(0.000000, 2220.000000)">
                <g id="Social-Icons" transform="translate(102.000000, 35.000000)" sketch:type="MSShapeGroup">
                    <path d="M58,30 C66.2842712,30 73,23.2842712 73,15 C73,6.71572875 66.2842712,0 58,0 C49.7157288,0 43,6.71572875 43,15 C43,23.2842712 49.7157288,30 58,30 Z M57.9113326,13.4439888 L57.9422931,13.9630226 L57.4262838,13.8994675 C55.5480098,13.6558393 53.9071001,12.8296222 52.5138748,11.4420011 L51.8327425,10.7534869 L51.6572993,11.2619282 C51.2857726,12.3953286 51.5231369,13.5922842 52.2971509,14.3973163 C52.7099584,14.8422024 52.6170767,14.9057576 51.9049838,14.6409444 C51.6572993,14.5562042 51.4405754,14.492649 51.419935,14.5244266 C51.3476937,14.5985743 51.5953782,15.5624943 51.7914618,15.9438253 C52.0597866,16.4734516 52.6067565,16.9924855 53.2053274,17.2996688 L53.7110165,17.5432969 L53.1124457,17.5538894 C52.5345152,17.5538894 52.5138748,17.5644819 52.575796,17.786925 C52.7821997,18.4754393 53.5974945,19.2063237 54.5056709,19.5240995 L55.1455225,19.7465426 L54.5882324,20.0855035 C53.7626174,20.5727597 52.7925199,20.8481654 51.8224223,20.8693505 C51.3580139,20.879943 50.976167,20.9223131 50.976167,20.9540907 C50.976167,21.060016 52.2352298,21.6531975 52.9679631,21.8862331 C55.1661629,22.5747474 57.7771701,22.2781566 59.7380056,21.1023861 C61.1312308,20.2655764 62.5244561,18.6025496 63.1746278,16.9924855 C63.5255142,16.1344908 63.8764005,14.5667967 63.8764005,13.8147273 C63.8764005,13.327471 63.9073611,13.2639158 64.4852916,12.6813268 C64.8258577,12.342366 65.1457835,11.9716275 65.2077046,11.8657022 C65.3109065,11.6644442 65.3005863,11.6644442 64.7742568,11.8445172 C63.8970409,12.162293 63.7731987,12.1199229 64.2066465,11.6432592 C64.5265723,11.3042983 64.9084192,10.6899317 64.9084192,10.5098587 C64.9084192,10.4780811 64.7536164,10.5310438 64.5781732,10.6263765 C64.3924099,10.7323018 63.9796024,10.8911897 63.6699968,10.9865225 L63.1127067,11.1665954 L62.6070176,10.817042 C62.3283725,10.6263765 61.9362054,10.414526 61.7298017,10.3509708 C61.2034722,10.2026754 60.3984976,10.2238605 59.923769,10.3933409 C58.6337456,10.8700047 57.8184509,12.0987378 57.9113326,13.4439888 Z" id="Twitter"></path>
                </g>
            </g>
        </g>
    </g>
</svg>
